<mxfile host="app.diagrams.net" agent="Mozilla/5.0 (Macintosh; Intel Mac OS X 10_15_7) AppleWebKit/537.36 (KHTML, like Gecko) Chrome/123.0.0.0 Safari/537.36 Edg/123.0.0.0" version="26.1.1">
  <diagram name="Page-1" id="v5VqtzWrUZ4nXxAtDdPF">
    <mxGraphModel dx="2832" dy="2206" grid="0" gridSize="10" guides="1" tooltips="1" connect="1" arrows="1" fold="1" page="1" pageScale="1" pageWidth="827" pageHeight="1169" math="0" shadow="0">
      <root>
        <mxCell id="0" />
        <mxCell id="1" parent="0" />
        <mxCell id="97ju-5fJx2tlex5vANPF-8" style="edgeStyle=orthogonalEdgeStyle;rounded=0;orthogonalLoop=1;jettySize=auto;html=1;entryX=0.5;entryY=1;entryDx=0;entryDy=0;" edge="1" parent="1" source="97ju-5fJx2tlex5vANPF-1" target="97ju-5fJx2tlex5vANPF-2">
          <mxGeometry relative="1" as="geometry" />
        </mxCell>
        <mxCell id="97ju-5fJx2tlex5vANPF-9" style="edgeStyle=orthogonalEdgeStyle;rounded=0;orthogonalLoop=1;jettySize=auto;html=1;entryX=0;entryY=0.5;entryDx=0;entryDy=0;" edge="1" parent="1" source="97ju-5fJx2tlex5vANPF-1" target="97ju-5fJx2tlex5vANPF-3">
          <mxGeometry relative="1" as="geometry" />
        </mxCell>
        <mxCell id="97ju-5fJx2tlex5vANPF-15" value="" style="edgeStyle=orthogonalEdgeStyle;rounded=0;orthogonalLoop=1;jettySize=auto;html=1;" edge="1" parent="1" source="97ju-5fJx2tlex5vANPF-1" target="97ju-5fJx2tlex5vANPF-14">
          <mxGeometry relative="1" as="geometry" />
        </mxCell>
        <mxCell id="97ju-5fJx2tlex5vANPF-17" value="" style="edgeStyle=orthogonalEdgeStyle;rounded=0;orthogonalLoop=1;jettySize=auto;html=1;" edge="1" parent="1" source="97ju-5fJx2tlex5vANPF-1" target="97ju-5fJx2tlex5vANPF-16">
          <mxGeometry relative="1" as="geometry" />
        </mxCell>
        <mxCell id="97ju-5fJx2tlex5vANPF-1" value="master(2.4.1)" style="ellipse;whiteSpace=wrap;html=1;" vertex="1" parent="1">
          <mxGeometry x="350" y="120" width="120" height="80" as="geometry" />
        </mxCell>
        <mxCell id="97ju-5fJx2tlex5vANPF-2" value="Development" style="ellipse;whiteSpace=wrap;html=1;" vertex="1" parent="1">
          <mxGeometry x="120" y="-70" width="120" height="80" as="geometry" />
        </mxCell>
        <mxCell id="97ju-5fJx2tlex5vANPF-3" value="UAT-KUMARI" style="ellipse;whiteSpace=wrap;html=1;" vertex="1" parent="1">
          <mxGeometry x="520" y="-70" width="120" height="80" as="geometry" />
        </mxCell>
        <mxCell id="97ju-5fJx2tlex5vANPF-4" value="UAT-SVARAA" style="ellipse;whiteSpace=wrap;html=1;" vertex="1" parent="1">
          <mxGeometry x="520" y="20" width="120" height="80" as="geometry" />
        </mxCell>
        <mxCell id="97ju-5fJx2tlex5vANPF-5" value="UAT-SACET" style="ellipse;whiteSpace=wrap;html=1;" vertex="1" parent="1">
          <mxGeometry x="520" y="120" width="120" height="80" as="geometry" />
        </mxCell>
        <mxCell id="97ju-5fJx2tlex5vANPF-10" style="edgeStyle=orthogonalEdgeStyle;rounded=0;orthogonalLoop=1;jettySize=auto;html=1;entryX=0;entryY=0.5;entryDx=0;entryDy=0;exitX=1;exitY=0.5;exitDx=0;exitDy=0;" edge="1" parent="1" source="97ju-5fJx2tlex5vANPF-1" target="97ju-5fJx2tlex5vANPF-4">
          <mxGeometry relative="1" as="geometry">
            <mxPoint x="480" y="170" as="sourcePoint" />
            <mxPoint x="530" y="-20" as="targetPoint" />
          </mxGeometry>
        </mxCell>
        <mxCell id="97ju-5fJx2tlex5vANPF-11" style="edgeStyle=orthogonalEdgeStyle;rounded=0;orthogonalLoop=1;jettySize=auto;html=1;entryX=0;entryY=0.5;entryDx=0;entryDy=0;exitX=1;exitY=0.5;exitDx=0;exitDy=0;" edge="1" parent="1" source="97ju-5fJx2tlex5vANPF-1" target="97ju-5fJx2tlex5vANPF-5">
          <mxGeometry relative="1" as="geometry">
            <mxPoint x="480" y="170" as="sourcePoint" />
            <mxPoint x="530" y="70" as="targetPoint" />
          </mxGeometry>
        </mxCell>
        <mxCell id="97ju-5fJx2tlex5vANPF-14" value="- Kumari&lt;div&gt;- Svaraa&lt;/div&gt;&lt;div&gt;- Wonder&lt;/div&gt;&lt;div&gt;- Faith&lt;/div&gt;&lt;div&gt;- Sacet&lt;/div&gt;" style="whiteSpace=wrap;html=1;" vertex="1" parent="1">
          <mxGeometry x="351" width="119" height="84" as="geometry" />
        </mxCell>
        <mxCell id="97ju-5fJx2tlex5vANPF-19" value="" style="edgeStyle=orthogonalEdgeStyle;rounded=0;orthogonalLoop=1;jettySize=auto;html=1;" edge="1" parent="1" source="97ju-5fJx2tlex5vANPF-16" target="97ju-5fJx2tlex5vANPF-18">
          <mxGeometry relative="1" as="geometry" />
        </mxCell>
        <mxCell id="97ju-5fJx2tlex5vANPF-21" value="" style="edgeStyle=orthogonalEdgeStyle;rounded=0;orthogonalLoop=1;jettySize=auto;html=1;" edge="1" parent="1" source="97ju-5fJx2tlex5vANPF-16" target="97ju-5fJx2tlex5vANPF-20">
          <mxGeometry relative="1" as="geometry" />
        </mxCell>
        <mxCell id="97ju-5fJx2tlex5vANPF-16" value="(2.4.6-p7&lt;span style=&quot;color: light-dark(rgb(0, 0, 0), rgb(255, 255, 255)); background-color: transparent;&quot;&gt;)&lt;/span&gt;&lt;div&gt;&lt;span style=&quot;background-color: transparent;&quot;&gt;PROX-791-upgrade-projectx-to-latest-mage&lt;br&gt;&lt;/span&gt;&lt;/div&gt;" style="ellipse;whiteSpace=wrap;html=1;" vertex="1" parent="1">
          <mxGeometry x="264" y="280" width="293" height="89" as="geometry" />
        </mxCell>
        <mxCell id="97ju-5fJx2tlex5vANPF-23" value="" style="edgeStyle=orthogonalEdgeStyle;rounded=0;orthogonalLoop=1;jettySize=auto;html=1;" edge="1" parent="1" source="97ju-5fJx2tlex5vANPF-18" target="97ju-5fJx2tlex5vANPF-22">
          <mxGeometry relative="1" as="geometry" />
        </mxCell>
        <mxCell id="97ju-5fJx2tlex5vANPF-27" value="" style="edgeStyle=orthogonalEdgeStyle;rounded=0;orthogonalLoop=1;jettySize=auto;html=1;" edge="1" parent="1" source="97ju-5fJx2tlex5vANPF-18" target="97ju-5fJx2tlex5vANPF-26">
          <mxGeometry relative="1" as="geometry">
            <Array as="points">
              <mxPoint x="229" y="572" />
              <mxPoint x="229" y="572" />
            </Array>
          </mxGeometry>
        </mxCell>
        <mxCell id="97ju-5fJx2tlex5vANPF-18" value="(2.4.6-p7&lt;span style=&quot;background-color: transparent; color: light-dark(rgb(0, 0, 0), rgb(255, 255, 255));&quot;&gt;)&lt;br&gt;&lt;/span&gt;release/master-aigiri" style="ellipse;whiteSpace=wrap;html=1;" vertex="1" parent="1">
          <mxGeometry x="90" y="380" width="172" height="94" as="geometry" />
        </mxCell>
        <mxCell id="97ju-5fJx2tlex5vANPF-25" value="" style="edgeStyle=orthogonalEdgeStyle;rounded=0;orthogonalLoop=1;jettySize=auto;html=1;" edge="1" parent="1" source="97ju-5fJx2tlex5vANPF-20" target="97ju-5fJx2tlex5vANPF-24">
          <mxGeometry relative="1" as="geometry" />
        </mxCell>
        <mxCell id="97ju-5fJx2tlex5vANPF-30" value="" style="edgeStyle=orthogonalEdgeStyle;rounded=0;orthogonalLoop=1;jettySize=auto;html=1;" edge="1" parent="1" source="97ju-5fJx2tlex5vANPF-20" target="97ju-5fJx2tlex5vANPF-29">
          <mxGeometry relative="1" as="geometry">
            <Array as="points">
              <mxPoint x="599" y="564" />
              <mxPoint x="599" y="564" />
            </Array>
          </mxGeometry>
        </mxCell>
        <mxCell id="97ju-5fJx2tlex5vANPF-20" value="(2.4.7-p4&lt;span style=&quot;background-color: transparent; color: light-dark(rgb(0, 0, 0), rgb(255, 255, 255));&quot;&gt;)&lt;/span&gt;&lt;div&gt;&lt;span style=&quot;background-color: transparent;&quot;&gt;master-lumalume&lt;br&gt;&lt;/span&gt;&lt;/div&gt;" style="ellipse;whiteSpace=wrap;html=1;" vertex="1" parent="1">
          <mxGeometry x="566" y="384" width="157" height="86" as="geometry" />
        </mxCell>
        <mxCell id="97ju-5fJx2tlex5vANPF-22" value="(2.4.6-p7&lt;span style=&quot;background-color: transparent; color: light-dark(rgb(0, 0, 0), rgb(255, 255, 255));&quot;&gt;)&lt;br&gt;&lt;/span&gt;uat-aigiri" style="ellipse;whiteSpace=wrap;html=1;" vertex="1" parent="1">
          <mxGeometry x="-179" y="380" width="172" height="94" as="geometry" />
        </mxCell>
        <mxCell id="97ju-5fJx2tlex5vANPF-24" value="(2.4.7-p4&lt;span style=&quot;background-color: transparent; color: light-dark(rgb(0, 0, 0), rgb(255, 255, 255));&quot;&gt;)&lt;/span&gt;&lt;div&gt;&lt;span style=&quot;background-color: transparent;&quot;&gt;uat-lumalume&lt;br&gt;&lt;/span&gt;&lt;/div&gt;" style="ellipse;whiteSpace=wrap;html=1;" vertex="1" parent="1">
          <mxGeometry x="847" y="384" width="157" height="86" as="geometry" />
        </mxCell>
        <mxCell id="97ju-5fJx2tlex5vANPF-28" style="edgeStyle=orthogonalEdgeStyle;rounded=0;orthogonalLoop=1;jettySize=auto;html=1;entryX=0.5;entryY=1;entryDx=0;entryDy=0;" edge="1" parent="1" source="97ju-5fJx2tlex5vANPF-26" target="97ju-5fJx2tlex5vANPF-22">
          <mxGeometry relative="1" as="geometry" />
        </mxCell>
        <mxCell id="97ju-5fJx2tlex5vANPF-26" value="(2.4.6-p7&lt;span style=&quot;background-color: transparent; color: light-dark(rgb(0, 0, 0), rgb(255, 255, 255));&quot;&gt;)&lt;br&gt;&lt;/span&gt;bugfix/PROX-1219-aigiri-search-tabs-fix-url" style="ellipse;whiteSpace=wrap;html=1;" vertex="1" parent="1">
          <mxGeometry x="37" y="682" width="278" height="80" as="geometry" />
        </mxCell>
        <mxCell id="97ju-5fJx2tlex5vANPF-31" style="edgeStyle=orthogonalEdgeStyle;rounded=0;orthogonalLoop=1;jettySize=auto;html=1;entryX=0.5;entryY=1;entryDx=0;entryDy=0;" edge="1" parent="1" source="97ju-5fJx2tlex5vANPF-29" target="97ju-5fJx2tlex5vANPF-24">
          <mxGeometry relative="1" as="geometry" />
        </mxCell>
        <mxCell id="97ju-5fJx2tlex5vANPF-32" style="edgeStyle=orthogonalEdgeStyle;rounded=0;orthogonalLoop=1;jettySize=auto;html=1;entryX=1;entryY=1;entryDx=0;entryDy=0;" edge="1" parent="1" source="97ju-5fJx2tlex5vANPF-29" target="97ju-5fJx2tlex5vANPF-20">
          <mxGeometry relative="1" as="geometry">
            <Array as="points">
              <mxPoint x="700" y="635" />
              <mxPoint x="700" y="635" />
            </Array>
          </mxGeometry>
        </mxCell>
        <mxCell id="97ju-5fJx2tlex5vANPF-29" value="(2.4.7-p4&lt;span style=&quot;background-color: transparent; color: light-dark(rgb(0, 0, 0), rgb(255, 255, 255));&quot;&gt;)&lt;/span&gt;&lt;div&gt;&lt;span style=&quot;background-color: transparent;&quot;&gt;bugfix/PROX-1219-lumalume-search-tabs-fix-url&lt;br&gt;&lt;/span&gt;&lt;/div&gt;" style="ellipse;whiteSpace=wrap;html=1;" vertex="1" parent="1">
          <mxGeometry x="494.75" y="672" width="299.5" height="100" as="geometry" />
        </mxCell>
        <mxCell id="97ju-5fJx2tlex5vANPF-33" style="edgeStyle=orthogonalEdgeStyle;rounded=0;orthogonalLoop=1;jettySize=auto;html=1;entryX=0.215;entryY=0.883;entryDx=0;entryDy=0;entryPerimeter=0;" edge="1" parent="1" source="97ju-5fJx2tlex5vANPF-26" target="97ju-5fJx2tlex5vANPF-18">
          <mxGeometry relative="1" as="geometry">
            <Array as="points">
              <mxPoint x="127" y="571" />
              <mxPoint x="127" y="571" />
            </Array>
          </mxGeometry>
        </mxCell>
      </root>
    </mxGraphModel>
  </diagram>
</mxfile>
